# xmcd
#
# Track frame offsets: 
#        150
#        10151
#        24822
#        38238
#        47219
#        60470
#        77712
#        92947
#        99355
#        107089
#        131286
#        143741
#        155878
#        172640
#
# Disc length: 2409 seconds
#
# Revision: 3
# Processed by: cddbd v1.5.2PL0 Copyright (c) Steve Scherf et al.
# Submitted via: ExactAudioCopyFreeDBPlugin 1.0
#
DISCID=a409670e
DTITLE=Alexandru Andries - Texterioare
DYEAR=1999
DGENRE=Blues
TTITLE0=Dracula Blues
TTITLE1=Misca geamantanul
TTITLE2=Garda financiara
TTITLE3=Sa mulgem vaca
TTITLE4=La Rovine
TTITLE5=Ma doare maseaua
TTITLE6=Am cravata mea
TTITLE7=Nimeni
TTITLE8=Drum lung
TTITLE9=Lupta la romani
TTITLE10=Am pneumonie
TTITLE11=Seherezada
TTITLE12=Blues-ul mamicii
TTITLE13=Ce oras frumos
EXTD=YEAR: 1999 ID3G: 115
EXTT0=
EXTT1=
EXTT2=
EXTT3=
EXTT4=
EXTT5=
EXTT6=
EXTT7=
EXTT8=
EXTT9=
EXTT10=
EXTT11=
EXTT12=
EXTT13=
PLAYORDER=
